PathFileType	4	(X/Y/Z)	/Users/niels/Desktop/University/Third Semester/Perception and Action/Exam/Gymnastics Motion Tracking/Code for Gym Tracking/Analyzed Data/Backflip/backflip_good_idn_2_Sports2D/backflip_good_idn_2_Sports2D_px_person00.trc
DataRate	CameraRate	NumFrames	NumMarkers	Units	OrigDataRate	OrigDataStartFrame	OrigNumFrames
59.762675296655885	59.762675296655885	9	22	m	59.762675296655885	69	278
Frame#	Time	Hip			RHip			RKnee			RAnkle			RBigToe			RSmallToe			RHeel			LHip			LKnee			LAnkle			LBigToe			LSmallToe			LHeel			Neck			Head			Nose			RShoulder			RElbow			RWrist			LShoulder			LElbow			LWrist		
		X1	Y1	Z1	X2	Y2	Z2	X3	Y3	Z3	X4	Y4	Z4	X5	Y5	Z5	X6	Y6	Z6	X7	Y7	Z7	X8	Y8	Z8	X9	Y9	Z9	X10	Y10	Z10	X11	Y11	Z11	X12	Y12	Z12	X13	Y13	Z13	X14	Y14	Z14	X15	Y15	Z15	X16	Y16	Z16	X17	Y17	Z17	X18	Y18	Z18	X19	Y19	Z19	X20	Y20	Z20	X21	Y21	Z21	X22	Y22	Z22
69	1.15456678700361	1.0717724723153668	-0.5774886724835995	0.0	1.0690486768729701	-0.5789592841720174	0.0	1.0660045740160622	-0.6776202078317897	0.0	1.0430389585351783	-0.7650890454571918	0.0	1.0669017696574177	-0.7711346073276312	0.0	1.0615075967048984	-0.775742283829918	0.0	1.0370598643214253	-0.77193808599004	0.0	1.072929592403821	-0.5791876078237546	0.0	1.0670247694461108	-0.6769963512864615	0.0	1.0442468364371473	-0.7628731161256218	0.0	1.0786267161201968	-0.7734108803890007	0.0	1.0720560263061958	-0.7722262259173411	0.0	1.0304434891295309	-0.7708480728165268	0.0	1.0690719017533923	-0.44275250203452887	0.0	1.0750902403379745	-0.39510463179890576	0.0	1.0928791373071591	-0.41816251755185074	0.0	1.0632604609718903	-0.45529991247697055	0.0	1.0805268055849078	-0.3911669810318984	0.0	1.076002342085225	-0.33114591356705736	0.0	1.0710856958387087	-0.45673715231447065	0.0	1.0827884271962056	-0.3893578994672718	0.0	1.0771660289087275	-0.33636504616251284	0.0
70	1.1712996389891694	1.0716584924466732	-0.5775826805990391	0.0	1.0689953763593558	-0.5789951423151108	0.0	1.0660679728333087	-0.6775582515836784	0.0	1.0429750561959328	-0.7649197218381291	0.0	1.0668234460862942	-0.7710657131666301	0.0	1.0614475203241764	-0.7757043062443478	0.0	1.0369208329201833	-0.7718015641082681	0.0	1.072771100892789	-0.5791842616817554	0.0	1.067104617402319	-0.6768955821313817	0.0	1.0441096465324617	-0.762759921311961	0.0	1.0783585775660902	-0.7734500632570931	0.0	1.0718751423091961	-0.7723194506172645	0.0	1.0302299957112708	-0.7707215147329108	0.0	1.0691427221354122	-0.44269973483990005	0.0	1.0751976763293158	-0.3949403489864727	0.0	1.0929757654353458	-0.41812099033978656	0.0	1.0633424426052465	-0.4553118919442885	0.0	1.080533466778167	-0.391002749785139	0.0	1.0760332903591392	-0.33112479006573975	0.0	1.0709212304534164	-0.45662261181487535	0.0	1.0826839334053502	-0.38922522201718857	0.0	1.0769475812987037	-0.33632977185450363	0.0
71	1.188032490974729	1.071569322219962	-0.5776548505095627	0.0	1.0689736578829006	-0.5790129578506708	0.0	1.0660930538758848	-0.6775123152217061	0.0	1.0429262463605247	-0.7647805269594686	0.0	1.066795569189037	-0.7710339783376855	0.0	1.0614118241719246	-0.7756942174599044	0.0	1.036798836500788	-0.7716994922514543	0.0	1.0726180804978174	-0.5791692659050026	0.0	1.0671624030577187	-0.6768144971995574	0.0	1.0439975461338111	-0.7626742318394766	0.0	1.078189529593789	-0.7734858013746375	0.0	1.0717585177539188	-0.7724064481699878	0.0	1.03005199993498	-0.7706185697722685	0.0	1.0692438246813432	-0.44264883382593795	0.0	1.0753323597869735	-0.39472627191192894	0.0	1.0931407362611463	-0.41805386198334527	0.0	1.0634466748118927	-0.4553269067188144	0.0	1.0805494452239834	-0.39085568778427693	0.0	1.076065244783874	-0.33109165407024455	0.0	1.0707656685446798	-0.4565108049813127	0.0	1.0825790921908738	-0.38915166788554634	0.0	1.076705344338125	-0.33625127525268295	0.0
72	1.2047653429602887	1.0715125800928493	-0.577696208719322	0.0	1.0689970784889724	-0.5790083102629939	0.0	1.0660788357644384	-0.6774891759849258	0.0	1.0428988099169292	-0.7646797599388332	0.0	1.0668236155720316	-0.7710442379232408	0.0	1.0614108569688474	-0.7757154873932889	0.0	1.0367063841989497	-0.771637304836728	0.0	1.072471262428974	-0.5791412834934397	0.0	1.0671848720473534	-0.6767588244288569	0.0	1.0439136451650497	-0.7626224286374599	0.0	1.0781265790822507	-0.7735259267186407	0.0	1.071709450940956	-0.7724916470519995	0.0	1.0299188715199725	-0.7705444186920688	0.0	1.0693730429687212	-0.4426079389657781	0.0	1.0754871587416164	-0.39448675344321776	0.0	1.0933656324160772	-0.41797138342908385	0.0	1.0635795998385114	-0.4553484135756445	0.0	1.080575162541902	-0.3907420510018061	0.0	1.0760989082095174	-0.3310527372540141	0.0	1.0706224543901464	-0.45641278453347855	0.0	1.0824846491244222	-0.3891513859290115	0.0	1.076452651071009	-0.3361352293721211	0.0
73	1.221498194945848	1.0714918679728265	-0.5777010650870593	0.0	1.0690701595344325	-0.5789813911351108	0.0	1.0660276939761297	-0.677492946076749	0.0	1.0428946690589604	-0.764621713013274	0.0	1.0669088596671605	-0.7710924938050576	0.0	1.0614519374897133	-0.7757640174729	0.0	1.0366501046942773	-0.7716159505769016	0.0	1.0723329826030559	-0.579101966680912	0.0	1.067166385117306	-0.6767326210314571	0.0	1.0438609214334789	-0.7626050532041931	0.0	1.0781658499366464	-0.7735690020918009	0.0	1.0717251400950285	-0.7725730902650177	0.0	1.029836777291026	-0.7704986606387303	0.0	1.0695265689110833	-0.4425828392194764	0.0	1.075656215507268	-0.3942491886030644	0.0	1.0936402871822644	-0.4178875631433093	0.0	1.0637452268659522	-0.45537823865062654	0.0	1.0806129901323325	-0.3906726734780277	0.0	1.0761339886579788	-0.33101515908460755	0.0	1.0704982120135453	-0.4563410621141995	0.0	1.0824129210638405	-0.3892340162613876	0.0	1.0762105071868142	-0.33599657126655774	0.0
74	1.2382310469314077	1.0715072879567968	-0.5776711444367213	0.0	1.0691881215544066	-0.5789385482833478	0.0	1.0659455106033549	-0.6775256393896762	0.0	1.0429119493033934	-0.7646070168861325	0.0	1.0670481031384997	-0.7711711220595829	0.0	1.061534391643856	-0.7758331822343161	0.0	1.0366310101821083	-0.7716317799916543	0.0	1.0722075970457976	-0.5790577288554389	0.0	1.067108726460636	-0.6767391867878815	0.0	1.0438393279195228	-0.762619706804214	0.0	1.0782911196552187	-0.7736101862467494	0.0	1.0717971550253031	-0.7726478557921831	0.0	1.0298094375197162	-0.7704783500349117	0.0	1.0697016697619672	-0.442579443603292	0.0	1.0758373424294205	-0.3940409135014379	0.0	1.0939552895749616	-0.417819292629203	0.0	1.063943827677066	-0.45541829204132794	0.0	1.080666830462201	-0.3906527364906413	0.0	1.076169766270207	-0.3309846447759164	0.0	1.0704041244193097	-0.4563084551268295	0.0	1.0823755046351662	-0.3894043385733344	0.0	1.0760049239548315	-0.33585990215423506	0.0
75	1.2549638989169674	1.0715555951782003	-0.5776202165462239	0.0	1.0693391627867237	-0.5788941819875237	0.0	1.0658411867536046	-0.6775910798412252	0.0	1.042945473499278	-0.7646346597492001	0.0	1.067232859669052	-0.7712747635505187	0.0	1.0616492572250502	-0.7759196290870435	0.0	1.036645611949155	-0.7716791024942687	0.0	1.0720997794775744	-0.5790217653905956	0.0	1.0670182901392917	-0.6767812801052472	0.0	1.0438417465962084	-0.7626647114974875	0.0	1.078476346872818	-0.7736491179500925	0.0	1.0719122671432848	-0.772719551278354	0.0	1.0298366078185448	-0.7704818079891929	0.0	1.0698961321574008	-0.4426040496690549	0.0	1.0760311959675333	-0.39388533828216477	0.0	1.0943028171386797	-0.41778257358333515	0.0	1.0641703492944385	-0.4554710825352099	0.0	1.0807414947947924	-0.39068239520719	0.0	1.0762075959219624	-0.33096485082534666	0.0	1.0703540830023592	-0.45632354825294014	0.0	1.082382686478252	-0.38966438758252725	0.0	1.075859075438521	-0.33575663887717544	0.0
76	1.271696750902527	1.071630493072406	-0.5775750646112762	0.0	1.0695067954784847	-0.5788708204702193	0.0	1.0657239149945192	-0.6776950987069694	0.0	1.042987390590241	-0.7647036419688054	0.0	1.0674484859494309	-0.7713999852854599	0.0	1.0617830592849526	-0.7760229678403701	0.0	1.0366869832899726	-0.7717504782064136	0.0	1.0720131833635511	-0.5790141492528671	0.0	1.0669041080662875	-0.6768615920790312	0.0	1.0438550077461406	-0.7627384917655115	0.0	1.0786919105838613	-0.7736898983445906	0.0	1.072055227713703	-0.7727969410348673	0.0	1.0299122917232477	-0.7705082611207151	0.0	1.0701069621068622	-0.442660701076826	0.0	1.0762398253889514	-0.3937978597063025	0.0	1.0946766621759783	-0.4177897745469265	0.0	1.064413966849021	-0.4555395072008892	0.0	1.0808414572662897	-0.39075596108997723	0.0	1.0762529110058257	-0.33095834313364325	0.0	1.0703620075264022	-0.45638817068356924	0.0	1.0824430703025143	-0.39001272167305234	0.0	1.0757866204918878	-0.3357218488494406	0.0
77	1.2884296028880864	1.071724060829384	-0.5775678352283382	0.0	1.0696722971952042	-0.5788924227342573	0.0	1.0656000804534076	-0.6778415935942032	0.0	1.0430288221421258	-0.7648122630722013	0.0	1.0676762804847733	-0.7715407969951317	0.0	1.0619206292560928	-0.7761414348429415	0.0	1.0367466058973849	-0.7718368170141365	0.0	1.0719513882039289	-0.5790550615345522	0.0	1.066778604424654	-0.6769830565084518	0.0	1.0438668701892404	-0.762836690910203	0.0	1.0789117615905262	-0.7737352190785949	0.0	1.0722125661731747	-0.7728857237087172	0.0	1.0300254657018793	-0.7705553552849838	0.0	1.0703303264587334	-0.44274817275176553	0.0	1.0764665811206804	-0.3937827117806263	0.0	1.0950725959115237	-0.41784724917589894	0.0	1.0646607530798207	-0.45562553262354083	0.0	1.0809689439107129	-0.39086299410318354	0.0	1.076313696104624	-0.33096728219359706	0.0	1.07043916413563	-0.45649845710932413	0.0	1.082562321666921	-0.3904421785587899	0.0	1.075792967460427	-0.33579459373622866	0.0
